<?xml version="1.0" encoding="utf-8"?>
<!-- Generator: Adobe Illustrator 16.0.0, SVG Export Plug-In . SVG Version: 6.00 Build 0)  -->
<!DOCTYPE svg PUBLIC "-//W3C//DTD SVG 1.1//EN" "http://www.w3.org/Graphics/SVG/1.1/DTD/svg11.dtd">
<svg version="1.1" id="图层_1" xmlns="http://www.w3.org/2000/svg" xmlns:xlink="http://www.w3.org/1999/xlink" x="0px" y="0px"
	 width="100px" height="100px" viewBox="0 0 100 100" enable-background="new 0 0 100 100" xml:space="preserve">
<rect x="6.819" y="48.751" fill="none" stroke="#7E796A" stroke-width="2.002" width="86.695" height="37.031"/>
<path fill="none" stroke="#7E796A" stroke-width="2.002" d="M94.245,48.701H5.59c-1.663,0-3.025-1.361-3.025-3.024
	c0-1.664,1.362-3.024,3.025-3.024h88.655c1.663,0,3.023,1.36,3.023,3.024C97.269,47.34,95.908,48.701,94.245,48.701z"/>
<path fill="none" stroke="#7E796A" stroke-width="2.002" d="M49.979,30.236H12.824v3.628v4.754c0,2.202,1.801,4.003,4.003,4.003
	h29.274c2.201,0,4.003-1.801,4.003-4.003v-4.754l0.005-3.631L49.979,30.236z"/>
<path fill="none" stroke="#7E796A" stroke-width="2.002" stroke-linecap="round" d="M44.24,29.688l-0.078-12.463
	c0,0,0.062-7.256-7.193-8.32c-7.256-1.063-9.32,5.38-9.32,5.38"/>
<line fill="none" stroke="#7E796A" stroke-width="2.002" stroke-linecap="round" x1="44.225" y1="30.069" x2="37.887" y2="24.064"/>
<path fill="none" stroke="#7E796A" stroke-width="2.002" stroke-linecap="round" d="M62.073,42.413h-5.421
	c-0.552,0-1.002-0.45-1.002-1.001V28.484c0-0.551,0.45-1.001,1.002-1.001h5.421c0.551,0,1.001,0.45,1.001,1.001v12.927
	C63.074,41.962,62.624,42.413,62.073,42.413z"/>
<polyline fill="none" stroke="#7E796A" stroke-width="2.002" stroke-linecap="round" points="59.487,27.233 59.487,21.062 
	63.491,21.062 "/>
<path fill="none" stroke="#7E796A" stroke-width="2.002" stroke-linecap="round" d="M47.895,79.777H16.202
	c-1.652,0-3.003-1.352-3.003-3.004V57.675c0-1.651,1.351-3.002,3.003-3.002h31.692c1.65,0,3.003,1.351,3.003,3.002v19.099
	C50.897,78.426,49.545,79.777,47.895,79.777z"/>
<path fill="none" stroke="#7E796A" stroke-width="2.002" stroke-linecap="round" d="M85.169,79.777H58.86
	c-1.516,0-2.757-1.241-2.757-2.76V57.432c0-1.518,1.241-2.759,2.757-2.759h26.309c1.518,0,2.759,1.241,2.759,2.759v19.586
	C87.928,78.536,86.687,79.777,85.169,79.777z"/>
<line fill="none" stroke="#7E796A" stroke-width="2.002" stroke-linecap="round" x1="13.283" y1="67.184" x2="50.813" y2="67.184"/>
<line fill="none" stroke="#7E796A" stroke-width="2.002" stroke-linecap="round" x1="55.984" y1="67.184" x2="87.844" y2="67.184"/>
<path fill="none" stroke="#7E796A" stroke-width="2.002" stroke-linecap="round" d="M25.793,61.762h-6.672
	c-0.367,0-0.668-0.3-0.668-0.667c0-0.366,0.301-0.667,0.668-0.667h6.672c0.367,0,0.667,0.301,0.667,0.667
	C26.46,61.462,26.16,61.762,25.793,61.762z"/>
<path fill="none" stroke="#7E796A" stroke-width="2.002" stroke-linecap="round" d="M43.808,61.762h-6.673
	c-0.366,0-0.666-0.3-0.666-0.667c0-0.366,0.3-0.667,0.666-0.667h6.673c0.366,0,0.668,0.301,0.668,0.667
	C44.476,61.462,44.174,61.762,43.808,61.762z"/>
<path fill="none" stroke="#7E796A" stroke-width="2.002" stroke-linecap="round" d="M25.793,73.771h-6.672
	c-0.367,0-0.668-0.299-0.668-0.666s0.301-0.668,0.668-0.668h6.672c0.367,0,0.667,0.301,0.667,0.668S26.16,73.771,25.793,73.771z"/>
<path fill="none" stroke="#7E796A" stroke-width="2.002" stroke-linecap="round" d="M43.808,73.771h-6.673
	c-0.366,0-0.666-0.299-0.666-0.666s0.3-0.668,0.666-0.668h6.673c0.366,0,0.668,0.301,0.668,0.668S44.174,73.771,43.808,73.771z"/>
<path fill="none" stroke="#7E796A" stroke-width="2.002" stroke-linecap="round" d="M74.834,61.762h-6.672
	c-0.367,0-0.668-0.3-0.668-0.667c0-0.366,0.301-0.667,0.668-0.667h6.672c0.367,0,0.667,0.301,0.667,0.667
	C75.501,61.462,75.201,61.762,74.834,61.762z"/>
<path fill="none" stroke="#7E796A" stroke-width="2.002" stroke-linecap="round" d="M74.834,73.771h-6.672
	c-0.367,0-0.668-0.299-0.668-0.666s0.301-0.668,0.668-0.668h6.672c0.367,0,0.667,0.301,0.667,0.668S75.201,73.771,74.834,73.771z"/>
<polyline fill="none" stroke="#7E796A" stroke-width="2.002" stroke-linecap="round" points="6.726,85.782 6.726,92.371 
	13.235,92.371 19.788,85.865 "/>
<polyline fill="none" stroke="#7E796A" stroke-width="2.002" stroke-linecap="round" points="93.6,85.865 93.6,92.455 
	87.088,92.455 80.536,85.948 "/>
</svg>
