<?xml version="1.0" encoding="utf-8"?>
<!-- Generator: Adobe Illustrator 16.0.0, SVG Export Plug-In . SVG Version: 6.00 Build 0)  -->
<!DOCTYPE svg PUBLIC "-//W3C//DTD SVG 1.1//EN" "http://www.w3.org/Graphics/SVG/1.1/DTD/svg11.dtd">
<svg version="1.1" id="图层_1" xmlns="http://www.w3.org/2000/svg" xmlns:xlink="http://www.w3.org/1999/xlink" x="0px" y="0px"
	 width="100px" height="100px" viewBox="0 0 100 100" enable-background="new 0 0 100 100" xml:space="preserve">
<rect x="8.585" y="8.489" fill="none" stroke="#7E796A" stroke-width="2" stroke-miterlimit="10" width="20.437" height="83.667"/>
<rect x="29.023" y="29.601" fill="none" stroke="#7E796A" stroke-width="2" stroke-miterlimit="10" width="20.437" height="62.555"/>
<rect x="49.46" y="50.407" fill="none" stroke="#7E796A" stroke-width="2" stroke-miterlimit="10" width="20.437" height="41.749"/>
<rect x="69.898" y="70.678" fill="none" stroke="#7E796A" stroke-width="2" stroke-miterlimit="10" width="20.438" height="21.479"/>
<line fill="none" stroke="#7E796A" stroke-width="2" stroke-miterlimit="10" x1="29.405" y1="29.438" x2="9.095" y2="29.438"/>
<line fill="none" stroke="#7E796A" stroke-width="2" stroke-miterlimit="10" x1="50.993" y1="50.387" x2="8.201" y2="50.387"/>
<line fill="none" stroke="#7E796A" stroke-width="2" stroke-miterlimit="10" x1="70.409" y1="70.824" x2="8.201" y2="70.824"/>
<rect x="8.67" y="36.269" fill="none" stroke="#7E796A" stroke-width="2" stroke-miterlimit="10" width="5.365" height="14.075"/>
<rect x="14.12" y="33.007" fill="none" stroke="#7E796A" stroke-width="2" stroke-miterlimit="10" width="5.364" height="17.291"/>
<rect x="19.57" y="36.269" fill="none" stroke="#7E796A" stroke-width="2" stroke-miterlimit="10" width="5.363" height="14.075"/>
<rect x="70.068" y="56.706" fill="none" stroke="#7E796A" stroke-width="2" stroke-miterlimit="10" width="5.363" height="14.075"/>
<rect x="75.52" y="53.445" fill="none" stroke="#7E796A" stroke-width="2" stroke-miterlimit="10" width="5.363" height="17.291"/>
<rect x="81.309" y="56.706" fill="none" stroke="#7E796A" stroke-width="2" stroke-miterlimit="10" width="5.365" height="14.075"/>
<path fill="none" stroke="#7E796A" stroke-width="2" stroke-miterlimit="10" d="M60.104,50.387L60.104,50.387
	c-2.39,0-4.343-1.954-4.343-4.343v-4.173c0-2.388,1.953-4.343,4.343-4.343c2.389,0,4.344,1.955,4.344,4.343v4.173
	C64.448,48.433,62.493,50.387,60.104,50.387z"/>
<path fill="none" stroke="#7E796A" stroke-width="2" stroke-miterlimit="10" d="M60.828,37.229v-7.345c0,0,0.063-6.451,7.601-7.6
	c0.575,7.345-6.451,7.664-6.451,7.664l-0.763,0.024"/>
<path fill="none" stroke="#7E796A" stroke-width="2" stroke-miterlimit="10" d="M60.978,28.567c0,0,2.797-5.813-3.452-10.179
	c-3.768,6.332,2.392,9.727,2.392,9.727l0.674,0.36"/>
<line fill="none" stroke="#7E796A" stroke-width="2" stroke-linecap="round" stroke-miterlimit="10" x1="61.212" y1="37.293" x2="65.811" y2="32.823"/>
<rect x="29.299" y="74.755" fill="none" stroke="#7E796A" stroke-width="2" stroke-miterlimit="10" width="5.365" height="17.291"/>
<rect x="34.792" y="77.911" fill="none" stroke="#7E796A" stroke-width="2" stroke-miterlimit="10" width="5.364" height="14.075"/>
<rect x="40.136" y="84.193" fill="none" stroke="#7E796A" stroke-width="2" stroke-miterlimit="10" width="5.364" height="7.793"/>
<rect x="34.792" y="77.911" fill="none" stroke="#7E796A" stroke-width="2" stroke-miterlimit="10" width="5.364" height="14.075"/>
</svg>
