<?xml version="1.0" encoding="utf-8"?>
<!-- Generator: Adobe Illustrator 16.0.0, SVG Export Plug-In . SVG Version: 6.00 Build 0)  -->
<!DOCTYPE svg PUBLIC "-//W3C//DTD SVG 1.1//EN" "http://www.w3.org/Graphics/SVG/1.1/DTD/svg11.dtd">
<svg version="1.1" id="图层_1" xmlns="http://www.w3.org/2000/svg" xmlns:xlink="http://www.w3.org/1999/xlink" x="0px" y="0px"
	 width="320px" height="130px" viewBox="0 0 320 130" enable-background="new 0 0 320 130" xml:space="preserve">
<path fill="#FFFFFF" d="M198.529,38.817c0,19.727-15.988,35.722-35.723,35.722c-19.734,0-35.722-15.995-35.722-35.722
	c0-19.728,15.988-35.721,35.722-35.721C182.541,3.097,198.529,19.09,198.529,38.817"/>
<path fill="#79291D" d="M194.678,38.817c0,17.603-14.266,31.87-31.871,31.87s-31.873-14.267-31.873-31.87
	c0-17.604,14.267-31.871,31.873-31.871S194.678,21.214,194.678,38.817"/>
<path fill="none" stroke="#FFFFFF" stroke-width="0.713" stroke-miterlimit="10" d="M194.678,38.817
	c0,17.603-14.266,31.87-31.871,31.87s-31.873-14.267-31.873-31.87c0-17.604,14.267-31.871,31.873-31.871
	S194.678,21.214,194.678,38.817z"/>
<path fill="#3C331A" d="M162.807,75.537c-20.248,0-36.722-16.472-36.722-36.719c0-20.248,16.475-36.721,36.722-36.721
	c20.248,0,36.721,16.473,36.721,36.721C199.527,59.065,183.055,75.537,162.807,75.537 M162.807,4.095
	c-19.146,0-34.724,15.577-34.724,34.723c0,19.145,15.578,34.721,34.724,34.721c19.145,0,34.723-15.576,34.723-34.721
	C197.529,19.672,181.951,4.095,162.807,4.095"/>
<path fill="#3C331A" d="M9.321,129.106H9.25c-1.252,0-2.334-0.432-3.248-1.299c-0.865-0.912-1.299-2.018-1.299-3.316V92.162
	c0-1.249,0.434-2.33,1.299-3.246c0.914-0.914,2.02-1.37,3.318-1.37h13.855c1.25,0,2.332,0.456,3.246,1.37
	c0.914,0.916,1.371,1.997,1.371,3.246v7.218c0.049,0.53,0.264,0.986,0.65,1.369c0.432,0.434,0.984,0.651,1.658,0.651h-9.236
	c0.625,0,1.156-0.218,1.588-0.651c0.385-0.383,0.625-0.839,0.723-1.369v-5.123c-0.098-0.531-0.338-0.986-0.723-1.373
	c-0.385-0.433-0.842-0.672-1.371-0.722h-9.667c-0.576,0.05-1.059,0.289-1.443,0.722c-0.387,0.387-0.604,0.842-0.65,1.373v28.213
	c0.047,0.53,0.264,0.987,0.65,1.369c0.385,0.387,0.867,0.604,1.443,0.652h9.667c0.529-0.048,0.986-0.266,1.371-0.652
	c0.385-0.382,0.625-0.839,0.723-1.369v-5.123c-0.098-0.53-0.338-0.986-0.723-1.373c-0.432-0.479-0.963-0.719-1.588-0.719h9.236
	c-0.674,0-1.227,0.239-1.658,0.719c-0.387,0.387-0.602,0.843-0.65,1.373v7.145c0,1.299-0.457,2.404-1.371,3.316
	c-0.914,0.867-1.996,1.299-3.246,1.299H9.321z"/>
<path fill="#3C331A" d="M30.104,129.106c0.625,0,1.153-0.215,1.586-0.647c0.387-0.386,0.604-0.843,0.65-1.37V92.161
	c0-1.248,0.432-2.329,1.299-3.245c0.914-0.914,2.021-1.37,3.318-1.37h13.854c1.252,0,2.334,0.456,3.25,1.37
	c0.912,0.916,1.369,1.997,1.369,3.245v34.928c0.049,0.527,0.262,0.984,0.65,1.37c0.432,0.433,0.984,0.647,1.66,0.647h-9.236
	c0.625,0,1.152-0.215,1.586-0.647c0.385-0.386,0.625-0.843,0.721-1.37v-16.453H36.958v16.453c0.049,0.527,0.266,0.984,0.648,1.37
	c0.436,0.433,0.986,0.647,1.66,0.647H30.104z M50.811,106.017v-11.76c-0.096-0.531-0.336-0.986-0.721-1.373
	c-0.385-0.434-0.842-0.672-1.369-0.723h-9.67c-0.578,0.051-1.061,0.289-1.445,0.723c-0.383,0.387-0.6,0.842-0.648,1.373v11.76
	H50.811z"/>
<path fill="#3C331A" d="M57.741,129.106c0.623,0,1.152-0.215,1.584-0.647c0.387-0.386,0.604-0.843,0.652-1.37V89.638
	c-0.049-0.527-0.266-0.984-0.652-1.371c-0.432-0.479-0.961-0.721-1.584-0.721h20.707c1.252,0,2.334,0.456,3.246,1.37
	c0.914,0.916,1.373,1.997,1.373,3.246v13.854c0,0.676-0.242,1.229-0.723,1.662c-0.432,0.434-0.963,0.647-1.588,0.647
	c0.625,0,1.156,0.241,1.588,0.722c0.48,0.434,0.723,0.965,0.723,1.588v13.855c0,1.299-0.459,2.404-1.373,3.316
	c-0.912,0.866-1.994,1.299-3.246,1.299H57.741z M76.356,106.017c0.527-0.047,0.984-0.262,1.371-0.647
	c0.385-0.386,0.623-0.843,0.721-1.373v-9.739c-0.098-0.531-0.336-0.986-0.721-1.373c-0.387-0.433-0.844-0.672-1.371-0.722H64.592
	v13.854H76.356z M76.356,124.491c0.527-0.047,0.984-0.266,1.371-0.651c0.385-0.383,0.623-0.84,0.721-1.37v-9.742
	c-0.098-0.527-0.336-0.983-0.721-1.369c-0.387-0.434-0.844-0.676-1.371-0.723H64.592v13.855H76.356z"/>
<path fill="#3C331A" d="M85.448,129.106c0.625,0,1.154-0.215,1.588-0.647c0.387-0.386,0.6-0.843,0.648-1.37V89.638
	c-0.049-0.527-0.262-0.984-0.648-1.371c-0.434-0.479-0.963-0.721-1.588-0.721h9.164c-0.674,0-1.229,0.241-1.662,0.721
	c-0.383,0.387-0.6,0.844-0.646,1.371v37.451c0.047,0.527,0.264,0.984,0.646,1.37c0.434,0.433,0.988,0.647,1.662,0.647H85.448z"/>
<path fill="#3C331A" d="M94.682,129.106c0.627,0,1.156-0.215,1.588-0.647c0.387-0.386,0.604-0.843,0.65-1.37V89.638
	c-0.047-0.527-0.264-0.984-0.65-1.371c-0.432-0.479-0.961-0.721-1.588-0.721h6.855v0.07l2.311,4.546l2.311,4.619v0.073l2.307,4.546
	l2.309,4.616v0.074l2.309,4.545l2.311,4.619V89.638c-0.098-0.527-0.338-0.984-0.723-1.371c-0.432-0.479-0.963-0.721-1.588-0.721
	h9.236c-0.674,0-1.227,0.241-1.658,0.721c-0.387,0.387-0.602,0.844-0.65,1.371v37.451c0.049,0.527,0.264,0.984,0.65,1.37
	c0.432,0.433,0.984,0.647,1.658,0.647h-9.236c0.625,0,1.156-0.215,1.588-0.647c0.385-0.386,0.625-0.843,0.723-1.37v-2.598
	l-2.311-4.62l-2.309-4.616l-2.309-4.619l-2.307-4.619l-2.311-4.616l-2.311-4.546v30.234c0.047,0.527,0.266,0.984,0.65,1.37
	c0.434,0.433,0.984,0.647,1.66,0.647H94.682z"/>
<path fill="#3C331A" d="M122.321,129.106c0.625,0,1.152-0.215,1.584-0.647c0.389-0.386,0.605-0.843,0.652-1.37V89.638
	c-0.047-0.527-0.264-0.984-0.652-1.371c-0.432-0.479-0.959-0.721-1.584-0.721h25.326v6.926c0-0.625-0.24-1.155-0.723-1.588
	c-0.383-0.433-0.842-0.672-1.371-0.722h-16.378v13.854h11.764c0.525-0.047,0.984-0.262,1.367-0.647
	c0.48-0.433,0.723-0.987,0.723-1.659v9.235c0-0.624-0.242-1.154-0.723-1.589c-0.383-0.432-0.842-0.674-1.367-0.721h-11.764v13.855
	h16.378c0.529-0.048,0.988-0.266,1.371-0.652c0.482-0.433,0.723-0.982,0.723-1.658v6.926H122.321z"/>
<path fill="#3C331A" d="M159.191,129.106c0.625,0,1.154-0.215,1.59-0.647c0.383-0.386,0.623-0.843,0.719-1.37V92.162h-7.141
	c-0.578,0.05-1.063,0.289-1.445,0.722c-0.434,0.433-0.652,0.963-0.652,1.588v-6.926h23.096v6.926c0-0.625-0.242-1.155-0.725-1.588
	c-0.383-0.433-0.842-0.672-1.367-0.722h-7.146v34.927c0.047,0.527,0.264,0.984,0.65,1.37c0.43,0.433,0.986,0.647,1.66,0.647H159.191
	z"/>
<path fill="#3C331A" d="M177.666,129.106c0.627,0,1.156-0.215,1.588-0.647c0.387-0.386,0.604-0.843,0.652-1.37V89.638
	c-0.049-0.527-0.266-0.984-0.652-1.371c-0.432-0.479-0.961-0.721-1.588-0.721h9.164c-0.674,0-1.227,0.241-1.656,0.721
	c-0.389,0.387-0.607,0.844-0.654,1.371v30.233l2.311-4.616l2.311-4.548v-0.071l2.309-4.619l2.311,4.619v0.071l2.307,4.548
	l2.311,4.616V89.638c-0.098-0.527-0.336-0.984-0.723-1.371c-0.432-0.479-0.963-0.721-1.588-0.721h9.238
	c-0.674,0-1.229,0.241-1.66,0.721c-0.387,0.387-0.602,0.844-0.648,1.371v37.451c0.047,0.527,0.262,0.984,0.648,1.37
	c0.432,0.433,0.986,0.647,1.66,0.647h-6.928l-2.311-4.615l-2.307-4.62l-2.311-4.616l-2.309,4.616l-2.311,4.62l-2.311,4.615H177.666z
	"/>
<path fill="#3C331A" d="M212.158,129.106h-0.07c-1.254,0-2.334-0.433-3.248-1.299c-0.865-0.912-1.299-2.018-1.299-3.316V92.162
	c0-1.249,0.434-2.33,1.299-3.246c0.914-0.914,2.018-1.37,3.318-1.37h13.854c1.252,0,2.334,0.456,3.246,1.37
	c0.914,0.916,1.373,1.997,1.373,3.246v32.329c0,1.299-0.459,2.404-1.373,3.316c-0.912,0.866-1.994,1.299-3.246,1.299H212.158z
	 M223.92,124.491c0.527-0.047,0.982-0.266,1.371-0.651c0.385-0.383,0.625-0.84,0.721-1.37V94.257
	c-0.096-0.531-0.336-0.986-0.721-1.373c-0.389-0.433-0.844-0.672-1.371-0.722h-9.668c-0.578,0.05-1.061,0.289-1.443,0.722
	c-0.385,0.387-0.604,0.842-0.65,1.373v28.213c0.047,0.53,0.266,0.987,0.65,1.37c0.383,0.386,0.865,0.604,1.443,0.651H223.92z"/>
<path fill="#3C331A" d="M232.938,129.106c0.627,0,1.156-0.215,1.588-0.647c0.387-0.386,0.605-0.843,0.652-1.37V89.638
	c-0.047-0.527-0.266-0.984-0.652-1.371c-0.432-0.479-0.961-0.721-1.588-0.721h20.711c1.252,0,2.334,0.456,3.246,1.37
	c0.914,0.916,1.373,1.997,1.373,3.245v13.855c0,1.299-0.459,2.407-1.373,3.32c-0.912,0.865-1.994,1.299-3.246,1.299h-2.311
	l2.311,2.311v0.07l2.238,2.238h0.07l2.311,2.307v9.527c0.047,0.527,0.262,0.984,0.646,1.37c0.434,0.433,0.988,0.647,1.664,0.647
	h-9.24c0.625,0,1.156-0.215,1.588-0.647c0.387-0.386,0.625-0.843,0.723-1.37v-7.219l-4.617-4.615l-4.621-4.619h-4.617v16.453
	c0.047,0.527,0.266,0.984,0.652,1.37c0.432,0.433,0.982,0.647,1.656,0.647H232.938z M251.557,106.017
	c0.525-0.047,0.982-0.262,1.369-0.648c0.387-0.385,0.625-0.842,0.723-1.373v-9.738c-0.098-0.531-0.336-0.986-0.723-1.373
	c-0.387-0.434-0.844-0.672-1.369-0.723h-11.764v13.855H251.557z"/>
<path fill="#3C331A" d="M260.578,129.106c0.623,0,1.154-0.215,1.586-0.647c0.387-0.386,0.602-0.843,0.646-1.37V89.638
	c-0.045-0.527-0.26-0.984-0.646-1.371c-0.432-0.479-0.963-0.721-1.586-0.721h9.162c-0.672,0-1.227,0.241-1.66,0.721
	c-0.385,0.387-0.602,0.844-0.648,1.371v16.379l4.617-4.545V101.4l4.619-4.546v-0.073l4.619-4.546v-2.598
	c-0.098-0.527-0.34-0.984-0.723-1.371c-0.432-0.479-0.963-0.721-1.588-0.721h9.236c-0.674,0-1.227,0.241-1.658,0.721
	c-0.387,0.387-0.605,0.844-0.652,1.371v4.834l-2.305,2.31h-0.076l-2.234,2.31l-2.311,2.31h-0.074l-2.234,2.31l-2.311,2.307
	l2.311,2.31v0.074l2.234,2.235h0.074l2.311,2.31v0.071l2.234,2.238h0.076l2.305,2.307v9.527c0.047,0.527,0.266,0.984,0.652,1.37
	c0.432,0.433,0.984,0.647,1.658,0.647h-9.236c0.625,0,1.156-0.215,1.588-0.647c0.383-0.386,0.625-0.843,0.723-1.37v-7.218
	l-4.619-4.616l-4.619-4.619h-2.381l-2.236,2.31v14.144c0.047,0.527,0.264,0.984,0.648,1.37c0.434,0.433,0.988,0.647,1.66,0.647
	H260.578z"/>
<path fill="#3C331A" d="M295.068,129.106h-0.074c-1.25,0-2.334-0.432-3.246-1.299c-0.867-0.912-1.299-2.018-1.299-3.316v-7.145
	c-0.047-0.53-0.264-0.986-0.648-1.373c-0.434-0.479-0.965-0.719-1.588-0.719h9.164c-0.674,0-1.229,0.239-1.662,0.719
	c-0.385,0.387-0.6,0.843-0.646,1.373v5.123c0.047,0.53,0.262,0.987,0.646,1.369c0.387,0.387,0.867,0.604,1.445,0.652h9.668
	c0.531-0.048,0.986-0.266,1.373-0.652c0.383-0.382,0.625-0.839,0.721-1.369v-9.742c-0.096-0.527-0.338-0.983-0.721-1.371
	c-0.387-0.432-0.842-0.674-1.373-0.721h-11.76h-0.074c-1.25,0-2.334-0.433-3.246-1.3c-0.867-0.913-1.299-2.02-1.299-3.319V92.162
	c0-1.249,0.432-2.33,1.299-3.246c0.912-0.914,2.02-1.37,3.32-1.37h13.854c1.25,0,2.332,0.456,3.246,1.37
	c0.914,0.916,1.371,1.997,1.371,3.246v7.218c0.047,0.53,0.266,0.986,0.65,1.369c0.434,0.434,0.982,0.651,1.66,0.651h-9.236
	c0.623,0,1.154-0.218,1.588-0.651c0.383-0.383,0.625-0.839,0.721-1.369v-5.123c-0.096-0.531-0.338-0.986-0.721-1.373
	c-0.387-0.433-0.842-0.672-1.373-0.722h-9.668c-0.578,0.05-1.059,0.289-1.445,0.722c-0.385,0.387-0.6,0.842-0.646,1.373v9.739
	c0.047,0.53,0.262,0.985,0.646,1.373c0.387,0.386,0.867,0.601,1.445,0.647h11.762c1.25,0,2.332,0.459,3.246,1.373
	s1.371,1.994,1.371,3.246v13.855c0,1.299-0.457,2.404-1.371,3.316c-0.914,0.867-1.996,1.299-3.246,1.299H295.068z"/>
<path fill="#FFFFFF" d="M170.25,34.288c-1.178-0.03-4.184-0.23-5.584-0.379c0.322-1.166,0.541-1.943,0.139-2.514
	c-0.828-1.172-8.512-1.193-10.016-0.753c-1.781,0.521-1.721,2.297,0.135,2.721c0.979,0.229,6.564,0.676,8.082,0.899
	c0,0-0.559,1.578-1.117,2.891c-1.285,3.029-3.125,6.337-9.879,5.949c-7.207-0.419-8.226-7.677-5.994-14.108
	c2.205-6.343,7.047-12.369,15.002-12.023c3.266,0.145,7.133,2.062,6.758,5.123c-0.117,0.962-1.145,2.178-2.813,1.486
	c-0.811-0.339-1.359-0.996-1.4-1.765c-0.066,0.958,0.547,1.888,1.578,2.244c0.627,0.209,1.398,0.134,1.85-0.051
	c0.84-0.344,1.363-1.104,1.451-2.004c0.34-3.466-4.145-5.6-7.252-5.878c-8.74-0.77-17.333,4.987-20.005,12.664
	c-2.592,7.465,2.375,14.821,10.73,15.177c6.959,0.294,9.545-2.239,11.396-6.5c0.381-0.861,1.189-2.964,1.189-2.964
	c1.465,0.162,4.092,0.258,5.389,0.407c-1.547,1.82-2.58,4.285-3.291,8.384c-0.008,0.008-0.025,0.009-0.035,0.012l0.004,0.012
	c-7.885,3.096-11.506,11.22-11.635,15.141c-0.096,3.108,0.807,4.466,2.701,4.619c3.389,0.277,9.736-4.963,11.549-14.861
	c0.344-1.883,0.428-2.79,0.639-4.846c3.1-0.97,10.143-1.466,11.121,1.403c0.316,0.929-0.084,2.418-1.91,2.399
	c-0.889-0.009-1.688-0.41-2.063-1.098c0.365,0.903,1.332,1.53,2.434,1.471c0.666-0.039,1.33-0.393,1.666-0.728
	c0.619-0.619,0.76-1.518,0.441-2.369c-1.146-3.123-8.502-2.684-11.631-1.977c-0.059-3.044,0.902-6.055,1.916-7.306
	c4.504,0.34,13.197,0.603,14.959-1.993c0.654-0.961,0.395-2.01-0.385-2.593C183.154,28.183,174.84,29.823,170.25,34.288
	 M163.215,33.712c-0.438-0.051-6.986-0.491-8.037-0.762c-1.35-0.346-1.195-1.283-0.293-1.586c1.043-0.346,7.74-0.218,8.447,0.565
	C163.674,32.322,163.449,33.019,163.215,33.712 M165.783,48.419c-1.354,5.888-5.184,12.768-7.805,12.964
	c-1.053,0.08-1.502-0.521-1.355-3.157c0.215-3.772,3.588-11.273,9.898-14.015C166.277,45.819,166.119,46.935,165.783,48.419
	 M184.318,30.591c1.629,0.386,2.145,1.555,1.443,2.347c-1.426,1.618-7.928,1.845-13.432,1.54
	C173.795,32.405,179.352,29.418,184.318,30.591"/>
<path fill="#3C331A" d="M121.266,72.047c-1.305,2.162-3.766,3.613-6.455,3.613c-5.549,0-10.066-4.517-10.066-10.068
	c0-5.55,4.518-10.066,10.066-10.066c3.574,0,6.543,1.542,9.074,4.716c4.709,5.9,14.502,18.176,33.136,19.881v1.881H5.204v-1.885
	h142.15c-13.369-4.197-20.935-13.681-24.941-18.702c-2.15-2.696-4.637-4.007-7.602-4.007c-4.51,0-8.18,3.671-8.18,8.181
	c0,4.512,3.67,8.183,8.18,8.183C116.999,73.774,118.403,73.875,121.266,72.047"/>
<path fill="#3C331A" d="M204.141,72.047c2.414,1.66,4.266,1.728,6.451,1.728c4.514,0,8.184-3.671,8.184-8.183
	c0-4.51-3.67-8.181-8.184-8.181c-2.963,0-5.445,1.311-7.6,4.007c-4.002,5.021-11.566,14.504-24.941,18.702h135.471v1.885H168.387
	v-1.881c18.637-1.705,28.424-13.981,33.133-19.881c2.533-3.174,5.5-4.716,9.072-4.716c5.551,0,10.07,4.516,10.07,10.066
	c0,5.552-4.52,10.068-10.07,10.068C207.906,75.66,205.305,74.043,204.141,72.047"/>
<path fill="#31270F" d="M47.829,68.48c0-1.045-0.066-1.186-0.584-1.327c-0.102-0.027-0.32-0.041-0.436-0.041
	c-0.053,0-0.104-0.024-0.104-0.074c0-0.077,0.064-0.104,0.205-0.104c0.582,0,1.393,0.039,1.459,0.039
	c0.063,0,0.875-0.039,1.264-0.039c0.141,0,0.207,0.027,0.207,0.104c0,0.05-0.055,0.074-0.104,0.074
	c-0.092,0-0.168,0.014-0.324,0.041c-0.348,0.063-0.449,0.282-0.477,0.735c-0.023,0.412-0.023,0.799-0.023,1.342v1.443
	c0,0.578-0.016,0.606-0.172,0.696c-0.822,0.438-1.984,0.578-2.732,0.578c-0.979,0-2.809-0.127-4.242-1.377
	c-0.785-0.685-1.531-2.063-1.531-3.677c0-2.061,1.004-3.52,2.15-4.24c1.16-0.723,2.438-0.812,3.43-0.812
	c0.814,0,1.73,0.167,1.973,0.217c0.271,0.067,0.723,0.118,1.045,0.13c0.131,0.014,0.156,0.063,0.156,0.116
	c0,0.179-0.092,0.542-0.092,1.83c0,0.206-0.025,0.272-0.115,0.272c-0.064,0-0.078-0.079-0.092-0.195
	c-0.012-0.179-0.076-0.54-0.27-0.849c-0.322-0.49-1.365-1.045-3.031-1.045c-0.811,0-1.777,0.078-2.76,0.851
	c-0.748,0.593-1.275,1.765-1.275,3.275c0,1.817,0.916,3.134,1.367,3.571c1.018,0.994,2.193,1.379,3.377,1.379
	c0.465,0,1.137-0.077,1.471-0.27c0.17-0.091,0.26-0.234,0.26-0.451V68.48z"/>
<path fill="#31270F" d="M52.784,66.65c0-1.703,0-2.012-0.029-2.361c-0.025-0.371-0.09-0.552-0.465-0.606
	c-0.09-0.01-0.283-0.025-0.385-0.025c-0.039,0-0.092-0.052-0.092-0.088c0-0.065,0.053-0.092,0.182-0.092
	c0.516,0,1.277,0.027,1.342,0.027c0.115,0,1.068-0.027,1.416-0.027c0.723,0,1.521,0.066,2.115,0.478
	c0.283,0.204,0.787,0.733,0.787,1.495c0,0.814-0.334,1.599-1.393,2.5c0.928,1.16,1.713,2.158,2.373,2.838
	c0.605,0.621,0.98,0.722,1.262,0.76c0.221,0.038,0.336,0.038,0.4,0.038s0.104,0.055,0.104,0.093c0,0.064-0.064,0.09-0.271,0.09
	h-0.707c-0.645,0-0.932-0.064-1.213-0.221c-0.49-0.257-0.902-0.785-1.549-1.609c-0.477-0.596-0.98-1.305-1.225-1.601
	c-0.051-0.052-0.076-0.065-0.154-0.065l-1.443-0.023c-0.053,0-0.076,0.023-0.076,0.089v0.258c0,1.06,0,1.907,0.047,2.359
	c0.039,0.323,0.105,0.53,0.453,0.581c0.154,0.025,0.402,0.05,0.504,0.05c0.078,0,0.092,0.055,0.092,0.093
	c0,0.053-0.053,0.09-0.184,0.09c-0.619,0-1.338-0.037-1.391-0.037c-0.012,0-0.773,0.037-1.121,0.037
	c-0.117,0-0.182-0.025-0.182-0.09c0-0.038,0.025-0.093,0.092-0.093c0.104,0,0.244-0.024,0.348-0.05
	c0.219-0.051,0.244-0.258,0.297-0.581c0.066-0.452,0.066-1.314,0.066-2.37V66.65z M53.762,67.58c0,0.063,0.023,0.101,0.076,0.14
	c0.166,0.093,0.748,0.169,1.25,0.169c0.271,0,0.582-0.013,0.852-0.193c0.387-0.26,0.684-0.838,0.684-1.678
	c0-1.366-0.748-2.153-1.959-2.153c-0.336,0-0.697,0.039-0.816,0.064c-0.049,0.027-0.086,0.067-0.086,0.13V67.58z"/>
<path fill="#31270F" d="M63.497,63.697c0.141-0.361,0.195-0.424,0.27-0.424c0.117,0,0.156,0.154,0.271,0.399
	c0.207,0.463,2.025,4.992,2.721,6.654c0.414,0.978,0.723,1.12,0.967,1.198c0.166,0.052,0.336,0.063,0.453,0.063
	c0.064,0,0.143,0.026,0.143,0.092c0,0.064-0.129,0.089-0.26,0.089c-0.17,0-1.006,0-1.793-0.024c-0.219-0.013-0.398-0.013-0.398-0.08
	c0-0.05,0.025-0.05,0.076-0.076c0.066-0.025,0.182-0.115,0.104-0.297l-1.018-2.513c-0.027-0.053-0.037-0.065-0.104-0.065h-2.617
	c-0.053,0-0.09,0.027-0.117,0.091l-0.643,1.753c-0.104,0.271-0.17,0.542-0.17,0.734c0,0.221,0.193,0.297,0.389,0.297h0.104
	c0.09,0,0.115,0.039,0.115,0.092c0,0.064-0.064,0.089-0.168,0.089c-0.27,0-0.889-0.037-1.02-0.037c-0.115,0-0.682,0.037-1.146,0.037
	c-0.143,0-0.219-0.024-0.219-0.089c0-0.053,0.053-0.092,0.104-0.092c0.076,0,0.244-0.012,0.336-0.025
	c0.514-0.064,0.734-0.451,0.953-1.006L63.497,63.697z M64.76,68.262c0.051,0,0.051-0.025,0.039-0.078l-1.121-3.003
	c-0.066-0.168-0.129-0.168-0.193,0l-1.059,3.003c-0.01,0.053,0,0.078,0.039,0.078H64.76z"/>
<path fill="#31270F" d="M70.075,66.65c0-1.702,0-2.011-0.025-2.361c-0.025-0.371-0.092-0.553-0.467-0.607
	c-0.09-0.01-0.281-0.024-0.383-0.024c-0.041,0-0.092-0.052-0.092-0.089c0-0.065,0.051-0.091,0.18-0.091
	c0.518,0,1.25,0.026,1.314,0.026c0.08,0,2.453,0.014,2.709,0c0.219-0.014,0.426-0.053,0.516-0.063
	c0.051-0.014,0.104-0.052,0.154-0.052c0.037,0,0.051,0.052,0.051,0.101c0,0.079-0.064,0.207-0.09,0.515
	c-0.012,0.105-0.037,0.598-0.064,0.723c-0.012,0.053-0.051,0.116-0.104,0.116c-0.064,0-0.088-0.049-0.088-0.14
	c0-0.077-0.014-0.257-0.066-0.388c-0.078-0.181-0.191-0.258-0.811-0.334c-0.195-0.026-1.51-0.039-1.637-0.039
	c-0.055,0-0.064,0.039-0.064,0.115v2.98c0,0.074,0,0.115,0.064,0.115c0.141,0,1.637,0,1.896-0.027
	c0.266-0.022,0.436-0.038,0.551-0.153c0.078-0.078,0.129-0.144,0.168-0.144s0.064,0.028,0.064,0.093c0,0.061-0.064,0.244-0.09,0.605
	c-0.025,0.221-0.053,0.632-0.053,0.709c0,0.09-0.023,0.206-0.104,0.206c-0.049,0-0.076-0.039-0.076-0.103
	c0-0.104,0-0.221-0.053-0.359c-0.035-0.155-0.143-0.286-0.578-0.338c-0.311-0.039-1.521-0.051-1.717-0.051
	c-0.064,0-0.074,0.039-0.074,0.076v0.918c0,0.372-0.016,1.648,0,1.869c0.025,0.732,0.23,0.877,1.35,0.877
	c0.301,0,0.842,0,1.139-0.117c0.297-0.13,0.451-0.324,0.512-0.76c0.029-0.13,0.053-0.169,0.119-0.169
	c0.063,0,0.076,0.091,0.076,0.169c0,0.077-0.09,0.825-0.154,1.057c-0.076,0.283-0.191,0.283-0.631,0.283
	c-0.854,0-1.508-0.025-1.973-0.039c-0.477-0.023-0.773-0.023-0.943-0.023c-0.023,0-0.244,0-0.49,0.011
	c-0.219,0.013-0.473,0.026-0.656,0.026c-0.115,0-0.18-0.026-0.18-0.09c0-0.039,0.025-0.093,0.09-0.093
	c0.104,0,0.244-0.038,0.348-0.05c0.219-0.039,0.244-0.257,0.297-0.581c0.064-0.452,0.064-1.313,0.064-2.37V66.65z"/>
<path fill="#31270F" d="M85.934,70.349c0.041,0.386,0.119,0.983,0.584,1.138c0.318,0.101,0.617,0.101,0.732,0.101
	c0.053,0,0.09,0.026,0.09,0.078c0,0.067-0.104,0.104-0.232,0.104c-0.258,0-1.521-0.025-1.932-0.065
	c-0.273-0.024-0.324-0.063-0.324-0.117c0-0.038,0.025-0.076,0.078-0.089c0.064-0.012,0.078-0.182,0.053-0.387l-0.545-5.544h-0.023
	l-2.734,5.596c-0.232,0.478-0.295,0.581-0.398,0.581s-0.168-0.104-0.387-0.504c-0.297-0.543-1.045-1.946-1.332-2.539
	c-0.332-0.697-1.248-2.541-1.441-2.991h-0.051l-0.439,4.95c-0.012,0.168-0.012,0.375-0.012,0.555c0,0.165,0.104,0.271,0.271,0.311
	c0.193,0.051,0.359,0.062,0.438,0.062c0.039,0,0.09,0.04,0.09,0.078c0,0.079-0.076,0.104-0.207,0.104
	c-0.426,0-0.967-0.037-1.057-0.037c-0.104,0-0.645,0.037-0.955,0.037c-0.115,0-0.195-0.025-0.195-0.104
	c0-0.038,0.055-0.078,0.117-0.078c0.09,0,0.17-0.011,0.336-0.038c0.375-0.063,0.391-0.464,0.439-0.876l0.826-7.155
	c0.012-0.117,0.063-0.196,0.129-0.196c0.076,0,0.168,0.041,0.232,0.168l3.43,6.811l3.299-6.796c0.053-0.104,0.104-0.183,0.182-0.183
	s0.143,0.091,0.166,0.298L85.934,70.349z"/>
<path fill="#31270F" d="M89.614,66.65c0-1.702,0-2.011-0.027-2.361c-0.025-0.371-0.09-0.553-0.465-0.607
	c-0.09-0.01-0.281-0.024-0.385-0.024c-0.041,0-0.09-0.052-0.09-0.089c0-0.065,0.049-0.091,0.18-0.091
	c0.516,0,1.248,0.026,1.314,0.026c0.076,0,2.449,0.014,2.705,0c0.223-0.014,0.428-0.053,0.52-0.063
	c0.051-0.014,0.102-0.052,0.154-0.052c0.037,0,0.051,0.052,0.051,0.101c0,0.079-0.064,0.207-0.088,0.515
	c-0.016,0.105-0.041,0.598-0.066,0.723c-0.014,0.053-0.051,0.116-0.104,0.116c-0.064,0-0.09-0.049-0.09-0.14
	c0-0.077-0.014-0.257-0.064-0.388c-0.08-0.181-0.193-0.258-0.813-0.334c-0.193-0.026-1.51-0.039-1.637-0.039
	c-0.053,0-0.066,0.039-0.066,0.115v2.98c0,0.074,0,0.115,0.066,0.115c0.141,0,1.637,0,1.895-0.027
	c0.271-0.022,0.438-0.038,0.555-0.153c0.078-0.078,0.129-0.144,0.168-0.144s0.063,0.028,0.063,0.093
	c0,0.061-0.063,0.244-0.088,0.605c-0.027,0.221-0.053,0.632-0.053,0.709c0,0.09-0.025,0.206-0.105,0.206
	c-0.049,0-0.074-0.039-0.074-0.103c0-0.104,0-0.221-0.053-0.359c-0.037-0.155-0.141-0.286-0.578-0.338
	c-0.313-0.039-1.523-0.051-1.717-0.051c-0.064,0-0.078,0.039-0.078,0.076v0.918c0,0.372-0.012,1.648,0,1.869
	c0.027,0.732,0.232,0.877,1.355,0.877c0.297,0,0.838,0,1.133-0.117c0.297-0.13,0.453-0.324,0.518-0.76
	c0.025-0.13,0.049-0.169,0.115-0.169c0.064,0,0.076,0.091,0.076,0.169c0,0.077-0.09,0.825-0.152,1.057
	c-0.078,0.283-0.195,0.283-0.635,0.283c-0.852,0-1.506-0.025-1.971-0.039c-0.477-0.023-0.773-0.023-0.941-0.023
	c-0.025,0-0.244,0-0.488,0.011c-0.221,0.013-0.479,0.026-0.658,0.026c-0.119,0-0.18-0.026-0.18-0.09
	c0-0.039,0.025-0.093,0.088-0.093c0.104,0,0.246-0.038,0.35-0.05c0.219-0.039,0.244-0.257,0.295-0.581
	c0.066-0.452,0.066-1.313,0.066-2.37V66.65z"/>
<path fill="#31270F" d="M231.053,65.812c0-2.009,0-2.372-0.023-2.785c-0.027-0.438-0.133-0.644-0.557-0.733
	c-0.102-0.026-0.32-0.039-0.438-0.039c-0.053,0-0.105-0.025-0.105-0.076c0-0.078,0.068-0.106,0.211-0.106
	c0.293,0,0.641,0,0.926,0.012l0.529,0.027c0.258,0.014,2.875,0,3.17-0.011c0.246-0.016,0.453-0.016,0.566-0.052
	c0.08-0.025,0.135-0.076,0.184-0.076c0.053,0,0.076,0.051,0.076,0.112c0,0.094-0.064,0.247-0.102,0.609
	c-0.012,0.126-0.041,0.695-0.064,0.85c-0.014,0.065-0.041,0.143-0.105,0.143s-0.09-0.065-0.09-0.156c0-0.103-0.039-0.323-0.115-0.49
	c-0.078-0.168-0.375-0.399-0.879-0.415l-1.98-0.037c-0.082,0-0.119,0.037-0.119,0.143v3.558c0,0.079,0.012,0.117,0.09,0.117
	l1.65-0.013c0.219,0,0.398,0,0.582-0.014c0.307-0.026,0.477-0.063,0.59-0.232c0.055-0.063,0.09-0.131,0.143-0.131
	c0.049,0,0.064,0.039,0.064,0.105c0,0.076-0.064,0.297-0.102,0.721c-0.027,0.26-0.051,0.774-0.051,0.865
	c0,0.116,0,0.246-0.092,0.246c-0.064,0-0.092-0.053-0.092-0.115c-0.012-0.131-0.025-0.313-0.076-0.466
	c-0.064-0.181-0.271-0.411-0.668-0.464c-0.324-0.039-1.73-0.039-1.949-0.039c-0.064,0-0.09,0.023-0.09,0.115v1.098
	c0,1.236,0,2.256,0.064,2.795c0.041,0.375,0.119,0.66,0.502,0.711c0.182,0.026,0.465,0.051,0.578,0.051
	c0.082,0,0.107,0.039,0.107,0.078c0,0.065-0.064,0.103-0.207,0.103c-0.709,0-1.523-0.037-1.586-0.037
	c-0.064,0-0.877,0.037-1.266,0.037c-0.141,0-0.201-0.026-0.201-0.103c0-0.039,0.023-0.078,0.102-0.078
	c0.115,0,0.27-0.024,0.385-0.051c0.258-0.051,0.322-0.336,0.375-0.711c0.063-0.539,0.063-1.559,0.063-2.795V65.812z"/>
<path fill="#31270F" d="M239.951,63.75c0.143-0.361,0.195-0.424,0.271-0.424c0.115,0,0.156,0.154,0.268,0.4
	c0.209,0.462,2.029,4.987,2.725,6.653c0.412,0.979,0.725,1.119,0.965,1.197c0.168,0.051,0.332,0.064,0.455,0.064
	c0.063,0,0.137,0.026,0.137,0.092c0,0.063-0.129,0.089-0.26,0.089c-0.164,0-1.002,0-1.791-0.026
	c-0.213-0.011-0.398-0.011-0.398-0.076c0-0.052,0.027-0.052,0.078-0.078c0.066-0.024,0.18-0.117,0.107-0.297l-1.021-2.513
	c-0.025-0.053-0.041-0.065-0.104-0.065h-2.617c-0.051,0-0.088,0.025-0.115,0.092l-0.645,1.752c-0.105,0.27-0.17,0.539-0.17,0.734
	c0,0.219,0.193,0.297,0.389,0.297h0.1c0.094,0,0.119,0.039,0.119,0.092c0,0.063-0.064,0.089-0.166,0.089
	c-0.271,0-0.891-0.037-1.02-0.037c-0.117,0-0.686,0.037-1.148,0.037c-0.143,0-0.223-0.026-0.223-0.089
	c0-0.053,0.053-0.092,0.105-0.092c0.076,0,0.244-0.014,0.336-0.024c0.518-0.065,0.734-0.453,0.953-1.007L239.951,63.75z
	 M241.217,68.316c0.049,0,0.049-0.028,0.037-0.077l-1.119-3.005c-0.066-0.169-0.133-0.169-0.195,0l-1.057,3.005
	c-0.016,0.049,0,0.077,0.037,0.077H241.217z"/>
<path fill="#31270F" d="M246.531,66.703c0-1.702,0-2.011-0.027-2.362c-0.025-0.371-0.088-0.553-0.467-0.605
	c-0.088-0.01-0.281-0.025-0.385-0.025c-0.041,0-0.092-0.051-0.092-0.089c0-0.065,0.051-0.091,0.182-0.091
	c0.518,0,1.279,0.026,1.342,0.026c0.117,0,1.068-0.026,1.42-0.026c0.719,0,1.521,0.065,2.111,0.478
	c0.287,0.206,0.789,0.733,0.789,1.494c0,0.813-0.334,1.601-1.391,2.501c0.924,1.161,1.715,2.155,2.369,2.838
	c0.607,0.62,0.982,0.721,1.262,0.76c0.221,0.039,0.336,0.039,0.4,0.039s0.105,0.051,0.105,0.092c0,0.063-0.064,0.089-0.27,0.089
	h-0.709c-0.643,0-0.93-0.065-1.215-0.22c-0.488-0.258-0.9-0.787-1.543-1.611c-0.482-0.594-0.982-1.303-1.227-1.6
	c-0.057-0.051-0.08-0.064-0.156-0.064l-1.445-0.025c-0.053,0-0.074,0.025-0.074,0.09v0.258c0,1.061,0,1.91,0.051,2.361
	c0.037,0.322,0.102,0.529,0.449,0.579c0.158,0.027,0.4,0.052,0.504,0.052c0.078,0,0.09,0.051,0.09,0.092
	c0,0.052-0.051,0.089-0.182,0.089c-0.619,0-1.34-0.037-1.391-0.037c-0.012,0-0.773,0.037-1.121,0.037
	c-0.117,0-0.182-0.025-0.182-0.089c0-0.041,0.025-0.092,0.09-0.092c0.104,0,0.248-0.024,0.348-0.052
	c0.221-0.05,0.248-0.257,0.299-0.579c0.064-0.451,0.064-1.314,0.064-2.373V66.703z M247.512,67.632c0,0.064,0.021,0.101,0.074,0.14
	c0.166,0.092,0.75,0.168,1.25,0.168c0.271,0,0.582-0.012,0.854-0.191c0.385-0.261,0.684-0.838,0.684-1.677
	c0-1.367-0.748-2.153-1.961-2.153c-0.336,0-0.697,0.038-0.813,0.065c-0.049,0.026-0.088,0.065-0.088,0.128V67.632z"/>
<path fill="#31270F" d="M255.457,66.703c0-1.702,0-2.011-0.029-2.362c-0.023-0.371-0.088-0.553-0.463-0.605
	c-0.092-0.01-0.283-0.025-0.389-0.025c-0.039,0-0.092-0.051-0.092-0.089c0-0.065,0.053-0.091,0.182-0.091
	c0.516,0,1.279,0.026,1.342,0.026c0.115,0,1.072-0.026,1.42-0.026c0.723,0,1.52,0.065,2.111,0.478
	c0.283,0.206,0.791,0.733,0.791,1.494c0,0.813-0.336,1.601-1.395,2.501c0.926,1.161,1.715,2.155,2.373,2.838
	c0.605,0.62,0.979,0.721,1.26,0.76c0.221,0.039,0.336,0.039,0.4,0.039s0.104,0.051,0.104,0.092c0,0.063-0.066,0.089-0.268,0.089
	h-0.707c-0.648,0-0.932-0.065-1.215-0.22c-0.488-0.258-0.904-0.787-1.547-1.611c-0.479-0.594-0.98-1.303-1.225-1.6
	c-0.055-0.051-0.08-0.064-0.156-0.064l-1.443-0.025c-0.055,0-0.076,0.025-0.076,0.09v0.258c0,1.061,0,1.91,0.049,2.361
	c0.041,0.322,0.105,0.529,0.451,0.579c0.156,0.027,0.4,0.052,0.504,0.052c0.076,0,0.092,0.051,0.092,0.092
	c0,0.052-0.053,0.089-0.184,0.089c-0.617,0-1.34-0.037-1.395-0.037c-0.008,0-0.771,0.037-1.119,0.037
	c-0.117,0-0.178-0.025-0.178-0.089c0-0.041,0.025-0.092,0.088-0.092c0.105,0,0.248-0.024,0.35-0.052
	c0.219-0.05,0.246-0.257,0.299-0.579c0.064-0.451,0.064-1.314,0.064-2.373V66.703z M256.436,67.632c0,0.064,0.021,0.101,0.076,0.14
	c0.168,0.092,0.748,0.168,1.25,0.168c0.27,0,0.578-0.012,0.85-0.191c0.389-0.261,0.682-0.838,0.682-1.677
	c0-1.367-0.742-2.153-1.957-2.153c-0.336,0-0.695,0.038-0.811,0.065c-0.053,0.026-0.09,0.065-0.09,0.128V67.632z"/>
<path fill="#31270F" d="M263.801,66.703c0-1.702,0-2.011-0.029-2.361c-0.023-0.346-0.09-0.554-0.465-0.605
	c-0.088-0.011-0.283-0.026-0.385-0.026c-0.039,0-0.088-0.051-0.088-0.089c0-0.065,0.049-0.091,0.176-0.091
	c0.52,0,1.199,0.026,1.305,0.026c0.1,0,0.813-0.026,1.146-0.026c0.127,0,0.193,0.026,0.193,0.091c0,0.038-0.051,0.089-0.102,0.089
	c-0.08,0-0.145,0-0.285,0.026c-0.295,0.051-0.361,0.246-0.387,0.605c-0.025,0.35-0.025,0.659-0.025,2.361v1.535
	c0,1.586,0.35,2.242,0.838,2.68c0.555,0.506,1.045,0.594,1.689,0.594c0.697,0,1.367-0.309,1.752-0.771
	c0.529-0.635,0.645-1.539,0.645-2.655v-1.382c0-1.702-0.01-2.011-0.027-2.361c-0.012-0.346-0.076-0.554-0.449-0.605
	c-0.088-0.011-0.283-0.026-0.383-0.026c-0.055,0-0.092-0.051-0.092-0.089c0-0.065,0.051-0.091,0.18-0.091
	c0.502,0,1.158,0.026,1.223,0.026c0.08,0,0.623-0.026,0.955-0.026c0.129,0,0.18,0.026,0.18,0.091c0,0.038-0.041,0.089-0.088,0.089
	c-0.078,0-0.143,0-0.283,0.026c-0.311,0.066-0.375,0.246-0.4,0.605c-0.027,0.35-0.012,0.659-0.012,2.361v1.173
	c0,1.188-0.158,2.515-1.061,3.287c-0.826,0.711-1.701,0.801-2.369,0.801c-0.375,0-1.564-0.024-2.363-0.772
	c-0.553-0.518-0.988-1.281-0.988-2.875V66.703z"/>
<path fill="#31270F" d="M279.416,69.023c0-0.891-0.025-1.02-0.49-1.107c-0.094-0.014-0.283-0.025-0.389-0.025
	c-0.037,0-0.09-0.051-0.09-0.092c0-0.078,0.053-0.089,0.18-0.089c0.516,0,1.277,0.023,1.34,0.023c0.053,0,0.762-0.023,1.109-0.023
	c0.129,0,0.182,0.011,0.182,0.089c0,0.041-0.053,0.092-0.088,0.092c-0.076,0-0.158,0-0.287,0.025
	c-0.309,0.053-0.396,0.217-0.424,0.604c-0.014,0.349-0.014,0.673-0.014,1.137v1.223c0,0.506-0.012,0.52-0.154,0.596
	c-0.719,0.373-1.754,0.488-2.414,0.488c-0.861,0-2.475-0.102-3.734-1.174c-0.703-0.579-1.355-1.754-1.355-3.119
	c0-1.753,0.891-2.991,1.895-3.598c1.02-0.619,2.152-0.697,3.018-0.697c0.721,0,1.521,0.129,1.738,0.182
	c0.23,0.052,0.633,0.115,0.918,0.115c0.115,0,0.143,0.054,0.143,0.103c0,0.156-0.064,0.452-0.064,1.549
	c0,0.179-0.055,0.231-0.131,0.231c-0.064,0-0.076-0.066-0.076-0.168c-0.016-0.139-0.082-0.463-0.26-0.722
	c-0.281-0.414-1.146-0.849-2.615-0.849c-0.684,0-1.508,0.049-2.373,0.708c-0.66,0.502-1.121,1.481-1.121,2.757
	c0,1.55,0.797,2.659,1.197,3.031c0.902,0.837,1.857,1.148,2.9,1.148c0.398,0,0.93-0.037,1.229-0.207
	c0.143-0.078,0.232-0.129,0.232-0.336V69.023z"/>
<path fill="#31270F" d="M285.154,68.637c0,1.059,0,1.922,0.051,2.373c0.037,0.322,0.078,0.529,0.412,0.58
	c0.168,0.025,0.412,0.052,0.516,0.052c0.064,0,0.092,0.05,0.092,0.09c0,0.052-0.053,0.09-0.184,0.09
	c-0.629,0-1.365-0.038-1.418-0.038c-0.064,0-0.773,0.038-1.119,0.038c-0.119,0-0.182-0.026-0.182-0.09c0-0.04,0.021-0.09,0.088-0.09
	c0.105,0,0.248-0.026,0.348-0.052c0.225-0.051,0.26-0.258,0.301-0.58c0.051-0.451,0.064-1.314,0.064-2.373v-1.934
	c0-1.702,0-2.012-0.031-2.362c-0.021-0.372-0.109-0.538-0.354-0.591c-0.133-0.025-0.275-0.04-0.354-0.04
	c-0.051,0-0.088-0.051-0.088-0.088c0-0.066,0.047-0.091,0.182-0.091c0.371,0,1.08,0.025,1.145,0.025
	c0.053,0,0.789-0.025,1.137-0.025c0.129,0,0.178,0.025,0.178,0.091c0,0.037-0.049,0.088-0.09,0.088c-0.074,0-0.154,0-0.281,0.026
	c-0.309,0.067-0.373,0.22-0.4,0.605c-0.012,0.35-0.012,0.66-0.012,2.362V68.637z"/>
<path fill="#31270F" d="M291.123,63.75c0.141-0.361,0.193-0.424,0.275-0.424c0.113,0,0.152,0.154,0.266,0.4
	c0.205,0.462,2.025,4.987,2.721,6.653c0.412,0.979,0.725,1.119,0.969,1.197c0.164,0.051,0.334,0.064,0.453,0.064
	c0.063,0,0.139,0.026,0.139,0.092c0,0.063-0.129,0.089-0.258,0.089c-0.17,0-1.006,0-1.789-0.026c-0.221-0.011-0.4-0.011-0.4-0.076
	c0-0.052,0.027-0.052,0.076-0.078c0.064-0.024,0.18-0.117,0.104-0.297l-1.02-2.513c-0.027-0.053-0.039-0.065-0.104-0.065h-2.617
	c-0.053,0-0.09,0.025-0.117,0.092l-0.643,1.752c-0.105,0.27-0.166,0.539-0.166,0.734c0,0.219,0.193,0.297,0.385,0.297h0.104
	c0.088,0,0.117,0.039,0.117,0.092c0,0.063-0.064,0.089-0.17,0.089c-0.27,0-0.887-0.037-1.02-0.037c-0.111,0-0.682,0.037-1.146,0.037
	c-0.141,0-0.219-0.026-0.219-0.089c0-0.053,0.053-0.092,0.1-0.092c0.078,0,0.248-0.014,0.342-0.024
	c0.514-0.065,0.732-0.453,0.949-1.007L291.123,63.75z M292.387,68.316c0.055,0,0.055-0.028,0.043-0.077l-1.125-3.005
	c-0.064-0.169-0.129-0.169-0.193,0l-1.057,3.005c-0.012,0.049,0,0.077,0.037,0.077H292.387z"/>
</svg>
