<?xml version="1.0" encoding="utf-8"?>
<!-- Generator: Adobe Illustrator 16.0.0, SVG Export Plug-In . SVG Version: 6.00 Build 0)  -->
<!DOCTYPE svg PUBLIC "-//W3C//DTD SVG 1.1//EN" "http://www.w3.org/Graphics/SVG/1.1/DTD/svg11.dtd">
<svg version="1.1" id="图层_1" xmlns="http://www.w3.org/2000/svg" xmlns:xlink="http://www.w3.org/1999/xlink" x="0px" y="0px"
	 width="100px" height="100px" viewBox="0 0 100 100" enable-background="new 0 0 100 100" xml:space="preserve">
<line fill="none" stroke="#7E796A" stroke-width="2" stroke-linecap="round" stroke-miterlimit="10" x1="40.227" y1="8.795" x2="59.909" y2="8.795"/>
<rect x="4.05" y="53.627" fill="none" stroke="#7E796A" stroke-width="2" stroke-miterlimit="10" width="91.853" height="38.454"/>
<line fill="none" stroke="#7E796A" stroke-width="2" stroke-linecap="round" stroke-miterlimit="10" x1="1.135" y1="53.445" x2="99" y2="53.445"/>
<line fill="none" stroke="#7E796A" stroke-width="2" stroke-linecap="round" stroke-miterlimit="10" x1="35.762" y1="53.445" x2="35.762" y2="91.717"/>
<line fill="none" stroke="#7E796A" stroke-width="2" stroke-linecap="round" stroke-miterlimit="10" x1="65.286" y1="53.445" x2="65.286" y2="91.717"/>
<line fill="none" stroke="#7E796A" stroke-width="2" stroke-linecap="round" stroke-miterlimit="10" x1="4.416" y1="64.38" x2="35.033" y2="64.38"/>
<line fill="none" stroke="#7E796A" stroke-width="2" stroke-linecap="round" stroke-miterlimit="10" x1="65.65" y1="64.38" x2="95.174" y2="64.38"/>
<line fill="none" stroke="#7E796A" stroke-width="2" stroke-linecap="round" stroke-miterlimit="10" x1="4.416" y1="76.408" x2="35.033" y2="76.408"/>
<line fill="none" stroke="#7E796A" stroke-width="2" stroke-linecap="round" stroke-miterlimit="10" x1="65.65" y1="76.408" x2="95.174" y2="76.408"/>
<path fill="#7E796A" d="M22.048,60.006H17.4c-0.527,0-0.957-0.431-0.957-0.957c0-0.525,0.43-0.957,0.957-0.957h4.647
	c0.526,0,0.957,0.432,0.957,0.957C23.004,59.575,22.574,60.006,22.048,60.006"/>
<path fill="#7E796A" d="M22.048,72.035H17.4c-0.527,0-0.957-0.432-0.957-0.957c0-0.526,0.43-0.957,0.957-0.957h4.647
	c0.526,0,0.957,0.431,0.957,0.957C23.004,71.604,22.574,72.035,22.048,72.035"/>
<path fill="#7E796A" d="M22.048,85.156H17.4c-0.527,0-0.957-0.432-0.957-0.957s0.43-0.957,0.957-0.957h4.647
	c0.526,0,0.957,0.432,0.957,0.957S22.574,85.156,22.048,85.156"/>
<path fill="#7E796A" d="M83.282,60.006h-4.647c-0.525,0-0.957-0.431-0.957-0.957c0-0.525,0.432-0.957,0.957-0.957h4.647
	c0.526,0,0.957,0.432,0.957,0.957C84.239,59.575,83.809,60.006,83.282,60.006"/>
<path fill="#7E796A" d="M83.282,72.035h-4.647c-0.525,0-0.957-0.432-0.957-0.957c0-0.526,0.432-0.957,0.957-0.957h4.647
	c0.526,0,0.957,0.431,0.957,0.957C84.239,71.604,83.809,72.035,83.282,72.035"/>
<path fill="#7E796A" d="M83.282,85.156h-4.647c-0.525,0-0.957-0.432-0.957-0.957s0.432-0.957,0.957-0.957h4.647
	c0.526,0,0.957,0.432,0.957,0.957S83.809,85.156,83.282,85.156"/>
<path fill="none" stroke="#7E796A" stroke-width="2" stroke-linecap="round" stroke-miterlimit="10" d="M59.545,84.609H41.867
	c-1.203,0-2.187-0.984-2.187-2.188V70.395c0-1.203,0.984-2.188,2.187-2.188h17.678c1.203,0,2.187,0.984,2.187,2.188v12.027
	C61.731,83.625,60.748,84.609,59.545,84.609z"/>
<line fill="none" stroke="#7E796A" stroke-width="2" stroke-linecap="round" stroke-miterlimit="10" x1="39.68" y1="64.106" x2="61.731" y2="64.106"/>
<path fill="#7E796A" d="M43.507,58.775c0,0.73-0.591,1.322-1.321,1.322s-1.322-0.592-1.322-1.322c0-0.729,0.592-1.32,1.322-1.32
	S43.507,58.046,43.507,58.775"/>
<path fill="#7E796A" d="M48.975,58.775c0,0.73-0.592,1.322-1.321,1.322c-0.73,0-1.322-0.592-1.322-1.322
	c0-0.729,0.592-1.32,1.322-1.32C48.382,57.455,48.975,58.046,48.975,58.775"/>
<path fill="#7E796A" d="M54.442,58.775c0,0.73-0.593,1.322-1.321,1.322c-0.73,0-1.322-0.592-1.322-1.322
	c0-0.729,0.592-1.32,1.322-1.32C53.85,57.455,54.442,58.046,54.442,58.775"/>
<path fill="#7E796A" d="M59.909,58.775c0,0.73-0.593,1.322-1.321,1.322c-0.73,0-1.322-0.592-1.322-1.322
	c0-0.729,0.592-1.32,1.322-1.32C59.316,57.455,59.909,58.046,59.909,58.775"/>
<rect x="3.87" y="8.248" fill="none" stroke="#7E796A" stroke-width="2" stroke-linecap="round" stroke-miterlimit="10" width="25.332" height="28.886"/>
<path fill="#7E796A" d="M23.962,31.758v-4.646c0-0.526,0.43-0.957,0.956-0.957c0.526,0,0.957,0.431,0.957,0.957v4.646
	c0,0.526-0.431,0.957-0.957,0.957C24.392,32.715,23.962,32.284,23.962,31.758"/>
<rect x="70.571" y="8.248" fill="none" stroke="#7E796A" stroke-width="2" stroke-linecap="round" stroke-miterlimit="10" width="25.332" height="28.886"/>
<line fill="none" stroke="#7E796A" stroke-width="2" stroke-linecap="round" stroke-miterlimit="10" x1="70.662" y1="18.637" x2="95.811" y2="18.637"/>
<line fill="none" stroke="#7E796A" stroke-width="2" stroke-linecap="round" stroke-miterlimit="10" x1="70.662" y1="27.384" x2="95.811" y2="27.384"/>
<line fill="none" stroke="#7E796A" stroke-width="2" stroke-linecap="round" stroke-miterlimit="10" x1="34.76" y1="34.945" x2="65.377" y2="34.945"/>
<polyline fill="none" stroke="#7E796A" stroke-width="2" stroke-linecap="round" stroke-miterlimit="10" points="45.421,9.068 
	45.421,22.373 34.942,31.029 65.559,31.029 55.262,22.373 55.262,9.068 "/>
</svg>
