<?xml version="1.0" encoding="utf-8"?>
<!-- Generator: Adobe Illustrator 16.0.0, SVG Export Plug-In . SVG Version: 6.00 Build 0)  -->
<!DOCTYPE svg PUBLIC "-//W3C//DTD SVG 1.1//EN" "http://www.w3.org/Graphics/SVG/1.1/DTD/svg11.dtd">
<svg version="1.1" id="图层_1" xmlns="http://www.w3.org/2000/svg" xmlns:xlink="http://www.w3.org/1999/xlink" x="0px" y="0px"
	 width="100px" height="100px" viewBox="0 0 100 100" enable-background="new 0 0 100 100" xml:space="preserve">
<polyline fill="none" stroke="#7E796A" stroke-width="2" points="7.937,8.517 91.77,8.517 91.77,92.16 7.937,92.16 7.937,8.517 "/>
<line fill="none" stroke="#7E796A" stroke-width="2" x1="49.771" y1="8.327" x2="49.771" y2="92.16"/>
<line fill="none" stroke="#7E796A" stroke-width="2" x1="91.521" y1="28.577" x2="7.688" y2="28.577"/>
<line fill="none" stroke="#7E796A" stroke-width="2" x1="91.521" y1="49.577" x2="7.688" y2="49.577"/>
<circle fill="none" stroke="#7E796A" stroke-width="2" cx="70.687" cy="70.576" r="16.274"/>
<circle fill="none" stroke="#7E796A" stroke-width="2" cx="70.688" cy="70.576" r="11.818"/>
<circle fill="none" stroke="#7E796A" stroke-width="2" cx="28.687" cy="70.576" r="16.274"/>
<circle fill="none" stroke="#7E796A" stroke-width="2" cx="28.687" cy="70.576" r="11.819"/>
<rect x="16.77" y="14.16" fill="none" stroke="#7E796A" stroke-width="2" width="9.833" height="14.333"/>
<rect x="31.437" y="18.493" fill="none" stroke="#7E796A" stroke-width="2" width="9.833" height="9.923"/>
<rect x="58.27" y="34.993" fill="none" stroke="#7E796A" stroke-width="2" width="9.834" height="14.628"/>
<rect x="73.27" y="34.993" fill="none" stroke="#7E796A" stroke-width="2" width="9.834" height="14.628"/>
<path fill="none" stroke="#7E796A" stroke-width="2" d="M12.604,45.577c0,0-0.416-1.083,1-2.667"/>
<path fill="none" stroke="#7E796A" stroke-width="2" d="M45.179,45.577L45.179,45.577c0,2.063-1.718,3.75-3.817,3.75H16.42
	c-2.099,0-3.817-1.687-3.817-3.75"/>
<path fill="none" stroke="#7E796A" stroke-width="2" d="M42.123,43.41H15.722c-1.879,0-3.417-1.537-3.417-3.417
	c0-1.879,1.538-3.416,3.417-3.416h26.401c1.879,0,3.417,1.537,3.417,3.416C45.54,41.873,44.002,43.41,42.123,43.41z"/>
<path fill="none" stroke="#7E796A" stroke-width="2" d="M45.179,45.577c0,0,0.17-1.25-1.018-2.583"/>
<path fill="none" stroke="#7E796A" stroke-width="2" d="M54.188,24.827c0,0-0.417-1.083,1-2.667"/>
<path fill="none" stroke="#7E796A" stroke-width="2" d="M86.762,24.827L86.762,24.827c0,2.063-1.719,3.75-3.817,3.75h-24.94
	c-2.099,0-3.816-1.687-3.816-3.75"/>
<path fill="none" stroke="#7E796A" stroke-width="2" d="M83.706,22.66H57.305c-1.879,0-3.416-1.537-3.416-3.417
	c0-1.879,1.537-3.416,3.416-3.416h26.401c1.88,0,3.417,1.537,3.417,3.416C87.123,21.123,85.586,22.66,83.706,22.66z"/>
<path fill="none" stroke="#7E796A" stroke-width="2" d="M86.762,24.827c0,0,0.17-1.25-1.018-2.583"/>
<path fill="none" stroke="#7E796A" stroke-width="2" d="M17.021,72.451c0,0,2.708-2.666,7.833-2.791
	c3.667,0.084,5.042,0.791,6.875,1.541c0,0,5.834,2.125,8.792,0"/>
<path fill="#7E796A" d="M76.729,72.993L76.729,72.993c-0.48,0-0.875-0.394-0.875-0.875v-3.583c0-0.482,0.395-0.875,0.875-0.875
	s0.875,0.393,0.875,0.875v3.583C77.604,72.6,77.209,72.993,76.729,72.993"/>
</svg>
