<?xml version="1.0" encoding="utf-8"?>
<!-- Generator: Adobe Illustrator 16.0.0, SVG Export Plug-In . SVG Version: 6.00 Build 0)  -->
<!DOCTYPE svg PUBLIC "-//W3C//DTD SVG 1.1//EN" "http://www.w3.org/Graphics/SVG/1.1/DTD/svg11.dtd">
<svg version="1.1" id="图层_1" xmlns="http://www.w3.org/2000/svg" xmlns:xlink="http://www.w3.org/1999/xlink" x="0px" y="0px"
	 width="70px" height="70px" viewBox="0 0 70 70" enable-background="new 0 0 70 70" xml:space="preserve">
<path fill="#FFFFFF" d="M63.764,34.947c0,15.579-12.628,28.21-28.212,28.21c-15.586,0-28.212-12.631-28.212-28.21
	c0-15.58,12.626-28.211,28.212-28.211C51.136,6.736,63.764,19.367,63.764,34.947"/>
<path fill="#79291D" d="M60.723,34.947c0,13.902-11.268,25.169-25.171,25.169c-13.903,0-25.172-11.267-25.172-25.169
	c0-13.901,11.269-25.17,25.172-25.17C49.455,9.777,60.723,21.046,60.723,34.947"/>
<path fill="#FFFFFF" d="M35.552,60.398c-14.035,0-25.454-11.417-25.454-25.451c0-14.033,11.418-25.451,25.454-25.451
	c14.034,0,25.452,11.418,25.452,25.451C61.004,48.981,49.586,60.398,35.552,60.398z M35.552,10.06
	c-13.725,0-24.89,11.165-24.89,24.888c0,13.724,11.166,24.888,24.89,24.888c13.724,0,24.889-11.164,24.889-24.888
	C60.44,21.225,49.275,10.06,35.552,10.06z"/>
<path fill="#3C331A" d="M35.553,63.946c-15.992,0-29.001-13.008-29.001-28.998S19.561,5.949,35.553,5.949
	c15.988,0,28.998,13.009,28.998,28.999S51.541,63.946,35.553,63.946 M35.553,7.525c-15.122,0-27.425,12.303-27.425,27.423
	c0,15.119,12.303,27.421,27.425,27.421c15.118,0,27.422-12.302,27.422-27.421C62.975,19.828,50.671,7.525,35.553,7.525"/>
<path fill="#FFFFFF" d="M41.43,31.371c-0.93-0.024-3.305-0.182-4.41-0.3c0.254-0.922,0.427-1.534,0.109-1.985
	c-0.654-0.927-6.723-0.942-7.91-0.595c-1.406,0.411-1.359,1.813,0.106,2.148c0.773,0.181,5.185,0.534,6.386,0.71
	c0,0-0.443,1.246-0.884,2.283c-1.017,2.393-2.468,5.005-7.803,4.698c-5.691-0.33-6.498-6.063-4.734-11.142
	c1.742-5.009,5.565-9.768,11.848-9.495c2.578,0.115,5.633,1.629,5.338,4.046c-0.094,0.76-0.905,1.721-2.221,1.174
	c-0.642-0.268-1.076-0.787-1.108-1.394c-0.052,0.756,0.433,1.491,1.247,1.772c0.494,0.164,1.104,0.104,1.461-0.041
	c0.662-0.271,1.076-0.871,1.146-1.584c0.268-2.735-3.273-4.422-5.729-4.642c-6.902-0.608-13.689,3.938-15.798,10.002
	c-2.047,5.896,1.875,11.705,8.473,11.986c5.496,0.232,7.538-1.77,9-5.134c0.302-0.681,0.94-2.34,0.94-2.34
	c1.158,0.127,3.232,0.203,4.256,0.32c-1.223,1.438-2.038,3.385-2.6,6.621c-0.006,0.006-0.021,0.007-0.027,0.009l0.002,0.01
	c-6.225,2.445-9.086,8.861-9.187,11.957c-0.076,2.455,0.638,3.527,2.134,3.648c2.676,0.219,7.688-3.919,9.12-11.734
	c0.271-1.488,0.338-2.205,0.504-3.828c2.447-0.768,8.01-1.157,8.782,1.107c0.251,0.732-0.065,1.909-1.508,1.895
	c-0.702-0.008-1.332-0.323-1.629-0.867c0.289,0.714,1.052,1.209,1.922,1.162c0.526-0.031,1.05-0.311,1.315-0.575
	c0.488-0.489,0.601-1.198,0.349-1.871c-0.905-2.466-6.714-2.119-9.185-1.562c-0.047-2.403,0.713-4.782,1.512-5.77
	c3.559,0.269,10.423,0.478,11.814-1.574c0.517-0.759,0.312-1.587-0.304-2.047C51.62,26.549,45.055,27.844,41.43,31.371
	 M35.872,30.916c-0.344-0.041-5.517-0.388-6.345-0.602c-1.067-0.273-0.946-1.014-0.232-1.253c0.823-0.272,6.112-0.172,6.671,0.446
	C36.237,29.817,36.059,30.367,35.872,30.916 M37.901,42.53c-1.067,4.65-4.093,10.083-6.164,10.239
	c-0.829,0.062-1.186-0.412-1.07-2.494c0.171-2.978,2.834-8.901,7.817-11.067C38.293,40.478,38.166,41.358,37.901,42.53
	 M52.541,28.451c1.284,0.305,1.692,1.229,1.139,1.854c-1.125,1.277-6.262,1.458-10.607,1.216
	C44.229,29.883,48.617,27.524,52.541,28.451"/>
</svg>
