<?xml version="1.0" encoding="utf-8"?>
<!-- Generator: Adobe Illustrator 16.0.0, SVG Export Plug-In . SVG Version: 6.00 Build 0)  -->
<!DOCTYPE svg PUBLIC "-//W3C//DTD SVG 1.1//EN" "http://www.w3.org/Graphics/SVG/1.1/DTD/svg11.dtd">
<svg version="1.1" id="图层_1" xmlns="http://www.w3.org/2000/svg" xmlns:xlink="http://www.w3.org/1999/xlink" x="0px" y="0px"
	 width="120px" height="100px" viewBox="0 0 120 100" enable-background="new 0 0 120 100" xml:space="preserve">
<rect x="6.731" y="7.939" fill="#F4F4F2" width="105.437" height="69.529"/>
<rect x="6.731" y="7.939" fill="none" stroke="#7E796A" stroke-width="2" stroke-miterlimit="10" width="105.437" height="69.529"/>
<line fill="none" stroke="#7E796A" stroke-width="2" stroke-miterlimit="10" x1="6.732" y1="7.939" x2="60.115" y2="48.593"/>
<line fill="none" stroke="#7E796A" stroke-width="2" stroke-miterlimit="10" x1="112.357" y1="8.319" x2="58.975" y2="48.973"/>
<line fill="none" stroke="#7E796A" stroke-width="2" stroke-miterlimit="10" x1="45.106" y1="37.005" x2="6.731" y2="77.469"/>
<line fill="none" stroke="#7E796A" stroke-width="2" stroke-miterlimit="10" x1="74.363" y1="37.195" x2="112.736" y2="77.659"/>
<path fill="#F4F4F2" d="M74.42,78.05c0,7.579-6.145,13.723-13.723,13.723c-7.579,0-13.723-6.144-13.723-13.723
	s6.145-13.723,13.723-13.723C68.275,64.327,74.42,70.471,74.42,78.05"/>
<circle fill="none" stroke="#7E796A" stroke-width="2" stroke-miterlimit="10" cx="60.697" cy="78.05" r="13.723"/>
<line fill="none" stroke="#7E796A" stroke-width="2" stroke-linecap="round" stroke-miterlimit="10" x1="60.697" y1="71.951" x2="60.697" y2="81.931"/>
<polyline fill="none" stroke="#7E796A" stroke-width="2" stroke-linecap="round" stroke-miterlimit="10" points="54.321,77.772 
	60.697,84.148 67.072,78.049 "/>
</svg>
