<?xml version="1.0" encoding="utf-8"?>
<!-- Generator: Adobe Illustrator 16.0.0, SVG Export Plug-In . SVG Version: 6.00 Build 0)  -->
<!DOCTYPE svg PUBLIC "-//W3C//DTD SVG 1.1//EN" "http://www.w3.org/Graphics/SVG/1.1/DTD/svg11.dtd">
<svg version="1.1" id="图层_1" xmlns="http://www.w3.org/2000/svg" xmlns:xlink="http://www.w3.org/1999/xlink" x="0px" y="0px"
	 width="100px" height="100px" viewBox="0 0 100 100" enable-background="new 0 0 100 100" xml:space="preserve">
<path fill="#938E81" d="M14.821,89.296c-0.318,0-0.616-0.179-0.762-0.473c-0.171-0.347-0.088-0.765,0.204-1.019
	c5.748-4.998,9.692-9.615,11.406-13.353c0.196-0.426,0.7-0.612,1.127-0.418c0.426,0.195,0.614,0.7,0.418,1.127
	c-1.565,3.412-4.682,7.313-9.281,11.622c5.748-1.609,17.347-5.615,20.833-12.446c1.349-2.642,1.347-5.385-0.005-8.389
	c-0.191-0.428-0.001-0.933,0.427-1.124c0.429-0.191,0.931-0.003,1.124,0.427c1.555,3.456,1.543,6.773-0.032,9.86
	c-5.046,9.882-24.462,13.996-25.287,14.166C14.936,89.291,14.878,89.296,14.821,89.296"/>
<path fill="#938E81" d="M83.219,88.051c-3.139,0-10.35-1.921-14.938-4.205c-8.594-4.277-11.789-10.355-9.238-17.576
	c0.156-0.441,0.64-0.678,1.084-0.519c0.443,0.156,0.675,0.644,0.518,1.085c-1.388,3.93-0.828,7.455,1.662,10.479
	c4.744,5.757,14.91,8.271,19.364,8.926c-4.207-3.873-7.173-7.727-8.443-10.998c-0.17-0.438,0.048-0.932,0.485-1.1
	c0.436-0.174,0.93,0.045,1.1,0.483c1.34,3.45,4.787,7.665,9.709,11.869c0.326,0.278,0.418,0.815,0.18,1.175
	C84.529,87.932,84,88.051,83.219,88.051"/>
<path fill="#938E81" d="M88.971,95.303H10.364c-0.455,0-0.885-0.205-1.17-0.562c-0.285-0.354-0.393-0.819-0.294-1.265
	c0.667-3.008,3.005-12.975,5.052-14.968c2.654-2.584,8.322-4.165,10.718-4.665c2.805-6.754,0.851-12.41-1.399-18.925
	c-1.684-4.874-3.425-9.915-3.425-15.993c0-23.593,11.118-27.116,17.745-27.116c3.09,0,5.781,0.73,7.288,1.242
	c1.367-2.083,6.83-6.037,13.421-6.037c0.933,0,1.904,0.082,2.888,0.244c7.043,1.163,11.451,4.673,15.07,10.431
	c8.122,12.919,3.817,33.113,1.859,39.804c-0.258,0.882-0.611,1.814-0.984,2.804c-1.391,3.677-3.107,8.216-1.267,13.709
	c2.306,0.544,7.434,2.154,10.048,4.451c2.236,1.967,3.787,11.974,4.516,14.993c0.107,0.447,0.004,0.919-0.281,1.279
	C89.863,95.092,89.43,95.303,88.971,95.303 M12.25,92.303h74.797c-1.373-5.283-2.207-10.793-3.115-11.591
	c-2.106-1.853-7.303-3.483-9.513-3.956c-0.494-0.105-0.901-0.453-1.085-0.924c-2.677-6.898-0.557-12.504,0.991-16.596
	c0.353-0.934,0.687-1.813,0.911-2.584c1.729-5.905,5.976-25.443-1.52-37.365c-3.143-5-6.859-8.05-13.017-9.067
	c-0.824-0.136-1.632-0.204-2.401-0.204c-6.838,0-11.365,5.452-11.389,5.507c-0.339,0.756-1.226,1.093-1.982,0.755
	c-0.032-0.014-3.346-1.467-7.337-1.467c-3.992,0-7.231,1.421-9.627,4.223c-3.396,3.97-5.118,10.663-5.118,19.894
	c0,5.574,1.658,10.373,3.261,15.014c2.432,7.041,4.729,13.691,0.988,21.849c-0.203,0.442-0.609,0.76-1.088,0.851
	c-2.35,0.438-7.901,2.017-9.96,4.021C15.206,81.479,13.513,87.014,12.25,92.303"/>
<path fill="#938E81" d="M50.18,70.768c-11.561,0-20.968-13.002-20.968-28.985c0-8.656,6.376-15.913,6.647-16.303
	c0.18-0.259,0.492-0.402,0.8-0.357c0.312,0.037,0.579,0.245,0.69,0.538c0.027,0.067,2.694,4.779,10.885,8.67
	c12.043,5.718,20.574,3.008,22.165,3.008c0.405-0.001,0.317-0.006,0.341-0.005c0.219,0,0.43,0.084,0.588,0.236
	c0.167,0.16,0.264,0.382,0.264,0.613C71.592,54.496,61.987,70.768,50.18,70.768 M36.451,27.703
	c-1.708,2.785-5.538,7.739-5.538,14.079c0,16.321,9.963,27.287,19.268,27.287c10.668,0,19.385-15.054,19.704-30.039
	c-2.541-0.072-10.97,2.252-22.378-3.165C40.96,32.758,37.731,30.055,36.451,27.703"/>
<path fill="#938E81" d="M49.787,80.545c-4.378,0-8.79-1.281-11.341-3.834c-0.332-0.33-0.332-0.869,0-1.201s0.87-0.332,1.202,0
	c4.403,4.402,15.551,4.498,19.881,0.17c0.332-0.332,0.87-0.332,1.202,0c0.331,0.33,0.331,0.869,0,1.201
	C58.284,79.328,54.051,80.545,49.787,80.545"/>
</svg>
