<?xml version="1.0" encoding="utf-8"?>
<!-- Generator: Adobe Illustrator 16.0.0, SVG Export Plug-In . SVG Version: 6.00 Build 0)  -->
<!DOCTYPE svg PUBLIC "-//W3C//DTD SVG 1.1//EN" "http://www.w3.org/Graphics/SVG/1.1/DTD/svg11.dtd">
<svg version="1.1" id="图层_1" xmlns="http://www.w3.org/2000/svg" xmlns:xlink="http://www.w3.org/1999/xlink" x="0px" y="0px"
	 width="100px" height="100px" viewBox="0 0 100 100" enable-background="new 0 0 100 100" xml:space="preserve">
<path fill="#938E81" d="M50.036,68.521c-3.26,0-6.652-1.645-9.307-2.77c-0.432-0.184-0.634-0.683-0.45-1.114
	c0.183-0.431,0.681-0.634,1.113-0.45c2.452,1.038,5.604,2.635,8.644,2.635c3.57,0,5.612-1.182,9.027-2.361
	c0.443-0.15,0.929,0.084,1.081,0.526c0.153,0.443-0.083,0.929-0.525,1.081C56.043,67.302,53.776,68.521,50.036,68.521"/>
<path fill="#938E81" d="M28.896,50.043c-0.015,0-0.028,0-0.043-0.001c-2.271-0.051-5.741-4.681-5.709-7.622
	c0.022-1.842,1.325-2.941,3.488-2.941c0.051,0,0.103,0.004,0.152,0.014c1.05,0.191,2.98,1.423,4.028,2.133
	c1.358-1.629,5.229-6.899,5.799-14.672c0.028-0.391,0.32-0.712,0.708-0.776c0.386-0.063,0.768,0.146,0.921,0.505l3.818,8.947
	c11.385-4.561,14.58-11.939,14.612-12.015c0.138-0.329,0.475-0.54,0.824-0.521c0.356,0.017,0.666,0.253,0.771,0.594
	c0.049,0.152,4.804,15.031,13.312,17.295c3.054-2.026,4.791-1.586,5.718-0.838c1.653,1.335,1.475,4.157,0.609,6.214
	c-1.046,2.486-3.007,3.885-5.106,3.631c-0.623-0.072-1.188-0.541-1.478-1.223c-0.315-0.745-0.218-1.563,0.263-2.188
	c0.285-0.373,0.819-0.443,1.191-0.158c0.373,0.286,0.442,0.819,0.157,1.191c-0.031,0.042-0.13,0.17-0.08,0.389
	c0.039,0.171,0.146,0.29,0.19,0.313c1.945,0.225,3.014-1.943,3.295-2.613c0.717-1.705,0.668-3.604-0.11-4.232
	c-0.702-0.565-2.158-0.157-3.995,1.127c-0.195,0.137-0.439,0.186-0.673,0.134c-7.841-1.742-12.624-12.369-14.272-16.71
	c-1.728,2.72-6.08,7.987-15.387,11.498c-0.428,0.16-0.902-0.043-1.082-0.461L37.9,30.219c-1.522,8.149-6.125,12.913-6.345,13.135
	c-0.293,0.299-0.758,0.339-1.098,0.097c-1.188-0.844-3.147-2.076-3.913-2.268c-1.688,0.027-1.698,0.858-1.702,1.261
	c-0.025,2.353,3.063,5.881,4.047,5.903c0.059,0.011,0.269-0.064,0.382-0.213c0.128-0.165,0.148-0.4,0.063-0.7
	c-0.129-0.451,0.131-0.922,0.583-1.052c0.448-0.133,0.921,0.131,1.051,0.581c0.238,0.825,0.114,1.609-0.349,2.209
	C30.201,49.71,29.545,50.043,28.896,50.043"/>
<path fill="#938E81" d="M88.384,95.551H11.55c-0.431,0-0.84-0.186-1.125-0.508c-0.285-0.323-0.417-0.754-0.363-1.182
	c0.436-3.435,2.027-14.813,4.241-17.025c1.479-1.479,4.769-2.327,8.934-3.402c4.395-1.134,12.862-2.544,14.929-4.74
	c0.552-0.586,1.023-1.479,1.355-2.238c-2.988-1.506-10.556-10.198-11.93-16.097c-2.08-0.829-6.576-3.701-6.576-13.024
	c0-12.121,11.563-30.447,28.987-30.447c16.649,0,30.057,16.627,30.057,30.394c0,11.11-3.586,13.268-5.989,13.465
	c-1.644,6.519-9.445,14.542-13.124,16.087c0.325,0.722,0.68,1.371,0.936,1.623c2.049,2.028,9.871,3.402,14.125,4.615
	c4.062,1.156,7.568,2.155,9.176,3.764c2.275,2.275,4.161,13.578,4.687,16.988c0.064,0.434-0.061,0.873-0.345,1.204
	C89.237,95.359,88.821,95.551,88.384,95.551 M13.265,92.551h73.357c-1.025-6.092-2.573-12.604-3.563-13.596
	c-1.057-1.058-4.522-2.045-7.876-3c-4.825-1.375-12.814-2.797-15.413-5.366c-1.112-1.103-2.026-3.626-2.2-4.121
	c-0.132-0.377-0.107-0.79,0.066-1.148s0.484-0.633,0.86-0.763c4.021-1.387,11.453-8.657,12.933-15.72
	c0.09-0.429,0.362-0.797,0.746-1.007c0.382-0.211,0.836-0.244,1.244-0.092c-0.014-0.01,0.097,0.022,0.259,0.022
	c1.56,0,3.379-2.745,3.379-10.48C77.057,26.375,66.265,9.886,50,9.886c-15.622,0-25.987,16.521-25.987,27.447
	c0,9.378,5.065,10.373,5.116,10.382c0.607,0.105,1.088,0.574,1.211,1.178C32.017,57.127,40.663,63.731,42,64.298
	c0.706,0.299,1.073,1.082,0.851,1.815c-0.09,0.299-0.929,2.965-2.502,4.635c-2.66,2.828-11.347,4.295-16.364,5.59
	c-3.122,0.806-6.661,1.719-7.562,2.617C15.511,79.906,14.128,86.437,13.265,92.551"/>
<path fill="#938E81" d="M50.145,77.684c-0.22,0-0.438-0.084-0.604-0.253l-9.097-9.229c-0.33-0.334-0.326-0.873,0.009-1.201
	c0.336-0.328,0.873-0.326,1.202,0.008l8.501,8.627L59,66.996c0.334-0.326,0.874-0.322,1.202,0.016
	c0.328,0.336,0.322,0.873-0.015,1.201l-9.448,9.229C50.573,77.604,50.359,77.684,50.145,77.684"/>
<path fill="#938E81" d="M50.145,94.367c-0.469,0-0.85-0.38-0.85-0.85V76.834c0-0.471,0.381-0.851,0.85-0.851
	c0.47,0,0.851,0.38,0.851,0.851v16.685C50.995,93.988,50.614,94.367,50.145,94.367"/>
</svg>
