<?xml version="1.0" encoding="utf-8"?>
<!-- Generator: Adobe Illustrator 16.0.0, SVG Export Plug-In . SVG Version: 6.00 Build 0)  -->
<!DOCTYPE svg PUBLIC "-//W3C//DTD SVG 1.1//EN" "http://www.w3.org/Graphics/SVG/1.1/DTD/svg11.dtd">
<svg version="1.1" id="图层_1" xmlns="http://www.w3.org/2000/svg" xmlns:xlink="http://www.w3.org/1999/xlink" x="0px" y="0px"
	 width="100px" height="100px" viewBox="0 0 100 100" enable-background="new 0 0 100 100" xml:space="preserve">
<rect x="7.613" y="8.577" fill="none" stroke="#7E796A" stroke-width="2" stroke-miterlimit="10" width="83.333" height="83.5"/>
<line fill="none" stroke="#7E796A" stroke-width="2" stroke-miterlimit="10" x1="28.279" y1="8.41" x2="28.279" y2="91.743"/>
<line fill="none" stroke="#7E796A" stroke-width="2" stroke-miterlimit="10" x1="49.279" y1="8.41" x2="49.279" y2="91.743"/>
<line fill="none" stroke="#7E796A" stroke-width="2" stroke-miterlimit="10" x1="70.279" y1="8.41" x2="70.279" y2="91.743"/>
<line fill="none" stroke="#7E796A" stroke-width="2" stroke-miterlimit="10" x1="28.279" y1="30.327" x2="7.446" y2="30.327"/>
<line fill="none" stroke="#7E796A" stroke-width="2" stroke-miterlimit="10" x1="28.279" y1="50.327" x2="7.446" y2="50.327"/>
<line fill="none" stroke="#7E796A" stroke-width="2" stroke-miterlimit="10" x1="28.279" y1="70.326" x2="7.446" y2="70.326"/>
<line fill="none" stroke="#7E796A" stroke-width="2" stroke-miterlimit="10" x1="91.28" y1="30.327" x2="70.446" y2="30.327"/>
<line fill="none" stroke="#7E796A" stroke-width="2" stroke-miterlimit="10" x1="91.28" y1="50.327" x2="70.446" y2="50.327"/>
<line fill="none" stroke="#7E796A" stroke-width="2" stroke-miterlimit="10" x1="91.28" y1="70.326" x2="70.446" y2="70.326"/>
<line fill="none" stroke="#7E796A" stroke-width="2" stroke-linecap="round" stroke-miterlimit="10" x1="43.446" y1="50.577" x2="39.113" y2="50.577"/>
<line fill="none" stroke="#7E796A" stroke-width="2" stroke-linecap="round" stroke-miterlimit="10" x1="39.029" y1="55.035" x2="39.029" y2="50.702"/>
<line fill="none" stroke="#7E796A" stroke-width="2" stroke-linecap="round" stroke-miterlimit="10" x1="55.279" y1="50.494" x2="59.613" y2="50.494"/>
<line fill="none" stroke="#7E796A" stroke-width="2" stroke-linecap="round" stroke-miterlimit="10" x1="59.696" y1="54.951" x2="59.696" y2="50.619"/>
<line fill="none" stroke="#7E796A" stroke-width="2" stroke-linecap="round" stroke-miterlimit="10" x1="13.029" y1="80.66" x2="22.529" y2="80.66"/>
<line fill="none" stroke="#7E796A" stroke-width="2" stroke-linecap="round" stroke-miterlimit="10" x1="17.863" y1="80.66" x2="17.863" y2="83.16"/>
<line fill="none" stroke="#7E796A" stroke-width="2" stroke-linecap="round" stroke-miterlimit="10" x1="75.946" y1="80.66" x2="85.446" y2="80.66"/>
<line fill="none" stroke="#7E796A" stroke-width="2" stroke-linecap="round" stroke-miterlimit="10" x1="80.779" y1="80.66" x2="80.779" y2="83.16"/>
<line fill="none" stroke="#7E796A" stroke-width="2" stroke-linecap="round" stroke-miterlimit="10" x1="13.029" y1="59.66" x2="22.529" y2="59.66"/>
<line fill="none" stroke="#7E796A" stroke-width="2" stroke-linecap="round" stroke-miterlimit="10" x1="17.863" y1="59.66" x2="17.863" y2="62.16"/>
<line fill="none" stroke="#7E796A" stroke-width="2" stroke-linecap="round" stroke-miterlimit="10" x1="13.029" y1="40.66" x2="22.529" y2="40.66"/>
<line fill="none" stroke="#7E796A" stroke-width="2" stroke-linecap="round" stroke-miterlimit="10" x1="17.863" y1="40.66" x2="17.863" y2="43.16"/>
<line fill="none" stroke="#7E796A" stroke-width="2" stroke-linecap="round" stroke-miterlimit="10" x1="13.029" y1="20.66" x2="22.529" y2="20.66"/>
<line fill="none" stroke="#7E796A" stroke-width="2" stroke-linecap="round" stroke-miterlimit="10" x1="17.863" y1="20.66" x2="17.863" y2="23.16"/>
<line fill="none" stroke="#7E796A" stroke-width="2" stroke-linecap="round" stroke-miterlimit="10" x1="76.03" y1="59.66" x2="85.53" y2="59.66"/>
<line fill="none" stroke="#7E796A" stroke-width="2" stroke-linecap="round" stroke-miterlimit="10" x1="80.863" y1="59.66" x2="80.863" y2="62.16"/>
<line fill="none" stroke="#7E796A" stroke-width="2" stroke-linecap="round" stroke-miterlimit="10" x1="76.03" y1="40.66" x2="85.53" y2="40.66"/>
<line fill="none" stroke="#7E796A" stroke-width="2" stroke-linecap="round" stroke-miterlimit="10" x1="80.863" y1="40.66" x2="80.863" y2="43.16"/>
<line fill="none" stroke="#7E796A" stroke-width="2" stroke-linecap="round" stroke-miterlimit="10" x1="76.03" y1="20.66" x2="85.53" y2="20.66"/>
<line fill="none" stroke="#7E796A" stroke-width="2" stroke-linecap="round" stroke-miterlimit="10" x1="80.863" y1="20.66" x2="80.863" y2="23.16"/>
</svg>
